<svg width="22" height="24" viewBox="0 0 22 24" fill="none" xmlns="http://www.w3.org/2000/svg">
<g clip-path="url(#clip0)">
<path d="M7.7057 12.2945C7.45256 12.2491 7.19478 12.2275 6.93699 12.2275C5.7758 12.2275 4.65408 12.6986 3.81802 13.5261C5.09998 14.1933 6.57005 14.4372 8.01458 14.2028C7.83576 13.5835 7.73125 12.945 7.7057 12.2945Z" fill="#1851FF"/>
<path d="M3.57416 10.6105C2.87744 11.0099 2.25736 11.5264 1.72786 12.1458C0.613111 13.4491 0 15.1231 0 16.8545C0 20.7931 3.112 23.9999 6.9393 23.9999C9.90732 23.9999 12.5456 22.0533 13.5047 19.1574C13.7509 18.4136 13.8763 17.6388 13.8763 16.8545C13.8763 16.8353 13.8763 16.8162 13.874 16.7995C13.874 16.7827 13.874 16.7636 13.8716 16.7468C13.8484 15.1351 13.291 13.5783 12.2994 12.3323C11.8628 12.8106 11.3704 13.2267 10.8316 13.5759C10.8897 13.7385 10.9547 13.8987 11.0314 14.0541C11.1405 14.2239 11.245 14.4057 11.3356 14.597C11.6793 15.3048 11.8535 16.0653 11.8535 16.8569C11.8535 17.383 11.7745 17.9019 11.6189 18.4017C10.9617 20.5085 9.08054 21.9218 6.93466 21.9218C4.22211 21.9218 2.01351 19.65 2.01351 16.8545C2.01351 15.5846 2.47335 14.3698 3.30941 13.4324C4.24068 12.3873 5.56212 11.7871 6.93466 11.7871C7.19012 11.7871 7.44558 11.8086 7.69872 11.8493C7.71266 11.151 7.81716 10.4623 8.01457 9.79747C7.6546 9.74007 7.29463 9.70898 6.93466 9.70898C5.76185 9.71138 4.59833 10.0223 3.57416 10.6105Z" fill="#1851FF"/>
<path d="M22 12C22 8.06135 18.888 4.85449 15.0607 4.85449C14.703 4.85449 14.3407 4.88319 13.9808 4.94297C14.1782 5.61017 14.285 6.29889 14.2989 6.99479C14.5521 6.95413 14.8075 6.93261 15.0607 6.93261C17.7732 6.93261 19.9818 9.20443 19.9818 12C19.9818 14.7931 17.7756 17.0673 15.0607 17.0673C14.8075 17.0673 14.5521 17.0458 14.2989 17.0051C14.285 17.701 14.1782 18.3898 13.9808 19.057C14.3407 19.1144 14.703 19.1454 15.0607 19.1454C18.888 19.1431 22 15.9386 22 12Z" fill="#1851FF"/>
<path d="M12.1484 11.8541C13.2353 10.5795 13.8484 8.94619 13.874 7.25309C13.874 7.23635 13.874 7.21722 13.8763 7.20048C13.8763 7.18135 13.8786 7.16222 13.8786 7.14548C13.8786 6.3611 13.7532 5.58629 13.507 4.84257C12.5432 1.94659 9.90499 0 6.9393 0C3.112 0 0 3.20446 0 7.14548C0 8.79554 0.557373 10.393 1.57458 11.67C2.03906 11.1606 2.56392 10.723 3.14219 10.3643C2.41528 9.45795 2.01816 8.32443 2.01816 7.14548C2.01816 4.35233 4.22443 2.07812 6.9393 2.07812C9.08519 2.07812 10.9686 3.49382 11.6236 5.59825C11.7792 6.09805 11.8581 6.61937 11.8581 7.14308C11.8581 7.93463 11.6839 8.6951 11.3402 9.40295C11.2473 9.59187 11.1451 9.77361 11.036 9.9434C10.9361 10.1515 10.8502 10.3667 10.7829 10.5843C10.6412 11.0411 10.5692 11.5169 10.5692 11.9952C10.5692 12.3802 10.6156 12.7629 10.7085 13.1359C11.2404 12.782 11.7234 12.3515 12.1484 11.8541Z" fill="#1851FF"/>
<path d="M11.2938 6.00488C9.98631 6.87774 8.99929 8.17866 8.49533 9.69719C8.26077 10.4027 8.13769 11.1392 8.12607 11.8901L8.12375 11.9427C8.12375 11.9618 8.12143 11.981 8.12143 12.0001C8.12143 12.0192 8.12143 12.0384 8.12375 12.0575L8.12607 12.1101C8.13769 12.861 8.26077 13.5975 8.49533 14.303C8.99929 15.8215 9.98863 17.1225 11.2938 17.9953C11.3867 17.6223 11.4332 17.2396 11.4332 16.8546C11.4332 16.1348 11.2752 15.4461 10.9664 14.8028C10.8572 14.633 10.7527 14.4513 10.6621 14.26C10.5506 14.028 10.4531 13.7889 10.3788 13.5449C10.2232 13.0451 10.1442 12.5262 10.1442 12.0001C10.1442 11.474 10.2232 10.9551 10.3788 10.4553C10.4554 10.2113 10.5506 9.9722 10.6621 9.74024C10.755 9.55132 10.8572 9.36957 10.9664 9.19978C11.2776 8.5565 11.4355 7.86538 11.4355 7.14797C11.4332 6.75817 11.3867 6.37555 11.2938 6.00488Z" fill="#1851FF"/>
</g>
<defs>
<clipPath id="clip0">
<rect width="22" height="24" fill="white"/>
</clipPath>
</defs>
</svg>
