<svg width="20" height="20" viewBox="0 0 20 20" fill="none" xmlns="http://www.w3.org/2000/svg">
<path fill-rule="evenodd" clip-rule="evenodd" d="M2.5 20H17.5C18.88 20 20 18.88 20 17.5V2.5C20 1.12 18.88 0 17.5 0H2.5C1.12 0 0 1.12 0 2.5V17.5C0 18.88 1.12 20 2.5 20ZM14.975 7.78507C14.975 11.1701 12.395 15.0801 7.67998 15.0801C6.23498 15.0801 4.88498 14.6551 3.75498 13.9351C3.95498 13.9601 4.15998 13.9701 4.36498 13.9701C5.56498 13.9701 6.66998 13.5601 7.54998 12.8701C6.42998 12.8501 5.47998 12.1101 5.15498 11.0901C5.30998 11.1201 5.46998 11.1351 5.63498 11.1351C5.86998 11.1351 6.09498 11.1051 6.30998 11.0451C5.13998 10.8101 4.25498 9.77007 4.25498 8.53007V8.49507C4.59998 8.68507 4.99498 8.80007 5.41498 8.81507C4.72998 8.35507 4.27498 7.57007 4.27498 6.68007C4.27498 6.21007 4.39998 5.77007 4.61998 5.39007C5.88498 6.94007 7.77498 7.96507 9.90498 8.07007C9.86498 7.88007 9.83998 7.68507 9.83998 7.48507C9.83998 6.07007 10.99 4.92007 12.405 4.92007C13.14 4.92007 13.805 5.23007 14.275 5.73007C14.86 5.61507 15.41 5.40507 15.905 5.11007C15.71 5.71007 15.305 6.21507 14.775 6.53007C15.295 6.46507 15.79 6.33007 16.25 6.12507C15.905 6.64007 15.47 7.09507 14.97 7.45507C14.975 7.56505 14.975 7.67503 14.975 7.78501V7.78507Z" fill="#20D3FF"/>
</svg>
