<svg width="19" height="19" viewBox="0 0 19 19" fill="none" xmlns="http://www.w3.org/2000/svg">
<path fill-rule="evenodd" clip-rule="evenodd" d="M16.191 16.1903H13.3735V11.7802C13.3735 10.7289 13.3545 9.37669 11.9083 9.37669C10.4431 9.37669 10.2194 10.523 10.2194 11.7052V16.1903H7.40403V7.12308H10.1043V8.3623H10.1433C10.5202 7.6498 11.4386 6.89825 12.8098 6.89825C15.6642 6.89825 16.191 8.77503 16.191 11.2176V16.1903ZM4.2268 5.88474C3.32109 5.88474 2.5906 5.15218 2.5906 4.24968C2.5906 3.34824 3.32109 2.61568 4.2268 2.61568C5.12724 2.61568 5.85984 3.34824 5.85984 4.24968C5.85984 5.15218 5.12724 5.88474 4.2268 5.88474ZM2.81435 16.19H5.63601V7.12277H2.81435V16.19ZM17.5939 0H1.4008C0.62809 0 0 0.613278 0 1.37011V17.6288C0 18.3857 0.62809 19 1.4008 19H17.5939C18.3687 19 19 18.3857 19 17.6288V1.37011C19 0.613278 18.3687 0 17.5939 0Z" fill="#4160AB"/>
</svg>
