<svg width="20" height="19" viewBox="0 0 20 19" fill="none" xmlns="http://www.w3.org/2000/svg">
<rect width="20" height="19" rx="3" fill="#909090"/>
<path d="M10.2741 10.4054L10.2784 10.385C10.3608 10.0383 10.4645 9.60591 10.3835 9.21417C10.3295 8.90513 10.1065 8.78471 9.91619 8.776C9.69176 8.76585 9.49148 8.89643 9.44176 9.0865C9.34801 9.43471 9.43182 9.9106 9.58523 10.5171C9.39205 10.9872 9.08381 11.6705 8.85795 12.0768C8.4375 12.2988 7.87358 12.6412 7.78977 13.0735C7.77273 13.1533 7.79261 13.2549 7.83949 13.3463C7.89205 13.4479 7.97585 13.5262 8.07386 13.564C8.11648 13.5799 8.16761 13.593 8.22727 13.593C8.47727 13.593 8.8821 13.3869 9.42187 12.441C9.50426 12.4134 9.58949 12.3844 9.67188 12.3554C10.0582 12.2219 10.4588 12.0826 10.821 12.0202C11.2216 12.2393 11.6776 12.38 11.9872 12.38C12.294 12.38 12.4148 12.1943 12.4602 12.0826C12.5398 11.8867 12.5014 11.6401 12.3722 11.508C12.1847 11.3194 11.7287 11.2701 11.0185 11.36C10.669 11.1424 10.4403 10.8464 10.2741 10.4054ZM8.71591 12.6093C8.51847 12.9023 8.36932 13.0489 8.28835 13.1127C8.38352 12.9343 8.5696 12.7456 8.71591 12.6093ZM9.96023 9.19241C10.0341 9.32154 10.0241 9.71183 9.96733 9.90915C9.89773 9.62042 9.88778 9.21127 9.92898 9.16339C9.94034 9.16484 9.95028 9.17355 9.96023 9.19241ZM9.9375 10.9407C10.0895 11.2092 10.2813 11.4398 10.4929 11.611C10.1861 11.6821 9.90625 11.7997 9.65625 11.9041C9.59659 11.9288 9.53835 11.9535 9.48153 11.9767C9.67045 11.627 9.82813 11.2309 9.9375 10.9407V10.9407ZM12.1477 11.8911C12.1491 11.894 12.1506 11.8983 12.142 11.9041H12.1392L12.1364 11.9085C12.125 11.9157 12.0085 11.9854 11.5071 11.7837C12.0838 11.7561 12.1463 11.8896 12.1477 11.8911V11.8911ZM14.8665 6.25871L11.8097 3.13638C11.7244 3.04933 11.6094 3 11.4886 3H5.45455C5.20312 3 5 3.20748 5 3.46429V15.5357C5 15.7925 5.20312 16 5.45455 16H14.5455C14.7969 16 15 15.7925 15 15.5357V6.58806C15 6.46473 14.9517 6.34576 14.8665 6.25871V6.25871ZM13.9517 6.80134H11.2784V4.07076L13.9517 6.80134ZM13.9773 14.9554H6.02273V4.04464H10.3125V7.17857C10.3125 7.34019 10.3754 7.49518 10.4872 7.60946C10.5991 7.72374 10.7509 7.78795 10.9091 7.78795H13.9773V14.9554Z" fill="white"/>
</svg>
